<svg xmlns="http://www.w3.org/2000/svg" width="276" height="295.19" viewBox="0 0 280 299.19">
 <g transform="matrix(1.3333 0 0 -1.3333 -78.705 711.03)">
  <g>
   <path d="m229.3 502.71c-14.044 12.145-30.212 20.466-47.141 24.916-0.42977 0.12512-0.85138 0.25296-1.292 0.37808l-5.9814 1.3383c-4.8036 1.0336-14.917 2.6929-28.732 2.2005l-5.8046-0.34545c-3.955-0.35361-14.628-1.7028-28.324-6.5798l-5.2633-2.2604c-4.0012-1.662-12.349-5.6387-23.311-13.6l-4.2297-3.5143c-2.6738-2.2032-9.5311-8.1466-15.439-15.757l-3.109-4.0039 40.736-25.892 3.7809-3.3702 6.2099-5.8073c-4.6758-4.6867-7.9643-9.0388-10.042-13.282-0.53041-1.05-13.105-26.064-22.993-57.641l-2.8533-9.1149 19.688 7.5835-17.131-67.716 8.5111 3.5524c0.34545 0.14416 34.741 14.487 57.869 21.608l16.658 4.7329 0.12512 0.0354 0.0925 0.0898c3.5932 3.4844 6.0576 8.2227 7.3414 14.101l6.7566-14.079 0.42433 0.14144c2.0428 0.69361 4.178 1.0663 6.3459 1.1098 23.297 0.47601 49.965-9.3706 50.234-9.4712l14.163-5.266-33.568 46.586 26.915-29.083 3.3239 4.0828c0.2448 0.30193 6.0848 7.54 11.914 19.47l2.2495 4.8879c0.2584 0.58481 0.54945 1.2676 0.85953 2.0264 19.141 44.984 8.7967 95.278-28.982 127.94" fill="#fff"/>
   <path d="m171.61 461.72-0.0218-0.0299c0.136-0.0381 0.26929-0.0626 0.40801-0.0979-0.136 0.0381-0.25568 0.087-0.38625 0.12785" fill="#0038a8"/>
   <path d="m171.99 461.59c0.24209-0.0762 0.46513-0.1632 0.70722-0.23664l0.049 0.049c-0.26113 0.0762-0.50049 0.11968-0.75618 0.18768" fill="#0038a8"/>
   <path transform="matrix(.75 0 0 -.75 59.029 533.27)" d="m116.99 44.123-8.8672 27.223c6.9235-1.3491 14.043-1.9324 21.293-1.6641l-12.426-25.559zm34.42 1.8984-16.686 23.998c3.6884 0.35541 7.4017 0.90552 11.119 1.707 3.4853 0.76161 6.8682 1.6904 10.176 2.793l-4.6094-28.498zm-66.672 5.4863-0.99805 28.211c6.2489-3.1661 12.849-5.6353 19.711-7.3398l-18.713-20.871zm99.072 6.2422-23.254 18.424c6.9887 2.7454 13.494 6.2601 19.453 10.445l3.8008-28.869zm-129.32 8.918 7.3633 28.281c5.2225-4.8018 11.514-9.4427 17.658-12.957l-25.021-15.324zm155.65 10.27-27.57 11.523c5.9478 4.479 11.285 9.6099 15.945 15.268l11.625-26.791zm21.092 27.266-29.859 3.1699c4.4029 5.9297 8.1098 12.346 11.029 19.146l18.83-22.316zm-108.48 5.4063c-45.585 0.70882-57.818 46.689-57.818 46.689 3.8516-3.8045 55.889-1.4551 55.889-1.4551-8.356 33.645-47.889 34.324-47.889 34.324l-19.166 76.057 62.898-21.605c4e-3 -0.00667 0.00319-0.0058 0.00586-0.01367 14.619-5.4111 23.436-32.275 23.436-32.275l6.2891 13.295s6.9816 10.729 23.367 12.984h0.00195c0.0472 0.01453 0.0893 0.02179 0.13282 0.02539 10.732 0.30101 22.522 1.4761 34.842 4.1816l-37.992-51.754c3.9604 1.7554 10.35 5.3824 15.631 8.4941 3.6739-7.7975 4.1442-21.818 3.9629-28.281-5.0085-57.157-56.619-60.432-56.619-60.432-2.4057-0.19499-4.7288-0.26924-6.9707-0.23437zm92.537 22.148c2.2522 6.7566 3.7599 13.84 4.4707 21.145l22.613-16.244-27.084-4.9004zm4.709 28.852c0.29013 6.9815-0.27055 12.621-1.7031 19.723l27.656-7.0449-25.953-12.678zm-2.8008 27.467c-1.9512 6.4592-3.5356 9.8108-6.8613 15.465l27.033 3.3828-20.172-18.848z" fill="#ffb81a"/>
   <path transform="matrix(.75 0 0 -.75 59.029 533.27)" d="m120.79 8.3477c-1.4282 0.0155-2.8909 0.050247-4.3867 0.10352l17.457 43.291 21.971-39.867s-13.619-3.7598-35.041-3.5273zm-9.4297 0.375s-16.045 0.56414-38.596 8.5937l29.771 36.033 8.8242-44.627zm49.01 4.0449 3.7695 46.479 32.869-31.516s-13.504-8.6777-36.639-14.963zm-91.82 6.4766s-12.995 4.344-32.336 18.387l36.51 26.93-4.1738-45.316zm132.52 10.883-10.232 45.471 40.795-20.371s-10.329-12.272-30.562-25.1zm-168.36 10.492s-11.779 8.9969-21.506 21.527l38.787 24.658-17.281-46.186zm200.97 17.324-23.215 40.432 45.025-7.502s-6.2482-14.749-21.811-32.93zm-109.05 19.508c-25.534 0.45583-46.314 14.482-56.229 23.262l10.398 9.7188c-5.665 5.179-12.885 12.392-16.846 20.498 0 0-16.916 33.233-30.291 75.945l13.307-5.1211s0.50685-1.9564 1.6602-5.2168c9.2591-26.537 12.234-27.674 12.234-27.674 3.906-4.7002 12.875-4.7305 12.875-4.7305l31.855-0.79492s-5.693 16.104-42.156 16.645l-27.059 106.97s72.722-30.355 97.652-34.004c0.02906-0.00667 0.05852-0.01563 0.08398-0.01563l0.05078-0.01757c-0.01453 4e-3 -0.03217 0.00309-0.04296 0.00976 14.006-13.589 8-41.594 8-41.594s-8.8162 26.862-23.436 32.273c-0.00667 0.00667-0.00586 0.0058-0.00586 0.01367l-62.9 21.605 19.168-76.061s39.532-0.67337 47.885-34.322c0 0-52.033-2.351-55.885 1.457 0 0 13.461-50.615 64.787-46.455 0 0 51.613 3.2759 56.621 60.43 0.18133 6.4628-0.28901 20.488-3.9629 28.285-5.2805-3.1117-11.672-6.7388-15.633-8.4941l37.994 51.75c-12.32-2.7019-24.11-3.8767-34.842-4.1777-0.04347-4e-3 -0.08763-0.01459-0.13477-0.02539-16.386-2.2558-23.367-12.984-23.367-12.984l11.893 25.145c33.663-2.5714 75.041 12.736 75.041 12.736l-40.25-56.098c5.9297-18.841 4.9062-34.969 4.9062-34.969-2.0128-31.125-18.634-59.893-51.576-70.287 0 0-23.16-7.9064-42.443-0.96485 0 0 14.228-13.432 46.1-4.7461l1.4902 0.45312c33.359 10.503 46.912 35.508 52.414 55.662 1.6828 6.5572 5.2258 22.145 1.541 50.43 0 0 8.686-16.313 8.0586-38.219l-0.02149-0.02539c-0.59116-46.658-38.662-85.481-86.451-86.293-0.83336-0.014167-1.6607-0.014704-2.4844 0zm132.83 16.348-34.271 31.693 45.262 6.1992s-1.5571-15.936-10.99-37.893zm11.533 42.059-40.326 20.635 40.656 17.564s2.7128-15.26-0.33008-38.199zm-0.26953 42.521-44.734 7.3945 33.361 29.068s7.2603-13.705 11.373-36.463zm-59.236 30.961 31.393 33.291s7.5596-9.2811 15.125-24.764l-46.518-8.5274z" fill="#0038a8"/>
  </g>
 </g>
</svg>
